<?xml version="1.0" encoding="UTF-8"?>
<svg xmlns="http://www.w3.org/2000/svg" xmlns:xlink="http://www.w3.org/1999/xlink" width="2003px" height="1042px" viewBox="0 0 2003 1042" version="1.1">
<g id="surface1">
<path style=" stroke:none;fill-rule:nonzero;fill:rgb(61.176471%,15.294118%,69.019608%);fill-opacity:1;" d="M 475.628906 92.253906 C 472.191406 93.972656 467.660156 97.726562 465.472656 100.539062 L 461.722656 105.542969 L 461.722656 632.640625 L 465.472656 638.117188 C 467.503906 641.242188 471.410156 644.996094 474.066406 646.714844 C 478.753906 649.527344 484.066406 649.683594 635.761719 650.46875 L 792.773438 651.25 L 726.066406 698.160156 C 689.351562 723.800781 659.980469 745.378906 660.605469 746.003906 C 661.230469 746.632812 669.507812 744.910156 678.882812 741.9375 C 710.757812 732.402344 748.25 725.054688 789.804688 720.515625 C 814.335938 717.859375 910.417969 717.859375 939.789062 720.515625 C 989.628906 725.054688 1040.402344 731.777344 1088.679688 740.222656 C 1105.238281 743.035156 1119.140625 744.910156 1119.613281 744.132812 C 1120.234375 743.191406 1054.777344 703.316406 978.066406 658.128906 L 966.347656 651.25 L 1118.671875 650.46875 C 1289.902344 649.527344 1276.933594 650.625 1285.527344 637.648438 L 1289.746094 631.082031 L 1289.746094 106.640625 L 1285.058594 100.695312 C 1282.402344 97.570312 1277.871094 93.660156 1274.902344 92.097656 C 1269.589844 89.285156 1256.3125 89.128906 875.734375 89.128906 C 484.066406 89.128906 482.03125 89.128906 475.628906 92.253906 Z M 1243.65625 369.796875 L 1243.65625 603.5625 L 506.25 603.5625 L 506.25 136.035156 L 1243.65625 136.035156 Z M 1243.65625 369.796875 "/>
<path style=" stroke:none;fill-rule:nonzero;fill:rgb(61.176471%,15.294118%,69.019608%);fill-opacity:1;" d="M 1396.761719 476.90625 L 1396.761719 839.664062 L 1562.054688 839.355469 L 1727.191406 838.886719 L 1727.191406 114.925781 L 1562.054688 114.457031 L 1396.761719 114.144531 Z M 1396.761719 476.90625 "/>
<path style=" stroke:none;fill-rule:nonzero;fill:rgb(61.176471%,15.294118%,69.019608%);fill-opacity:1;" d="M 544.523438 821.375 L 466.40625 868.59375 L 466.40625 885.792969 L 894.167969 886.261719 L 1321.773438 886.574219 L 1321.773438 878.132812 C 1321.773438 873.441406 1322.554688 869.375 1323.488281 869.0625 C 1324.273438 868.75 1290.371094 847.328125 1248.03125 821.375 L 1171.011719 773.992188 L 622.636719 774.308594 Z M 1242.71875 821.21875 L 1314.742188 865.464844 L 1104.921875 865.9375 C 989.628906 866.09375 801.210938 866.09375 686.226562 865.9375 L 477.1875 865.464844 L 549.835938 821.375 L 622.636719 777.277344 L 896.667969 777.277344 L 1170.699219 777.121094 Z M 1242.71875 821.21875 "/>
</g>
</svg>
